<?xml version="1.0" standalone="no"?>
<!DOCTYPE svg PUBLIC "-//W3C//DTD SVG 20010904//EN"
 "http://www.w3.org/TR/2001/REC-SVG-20010904/DTD/svg10.dtd">
<svg version="1.0" xmlns="http://www.w3.org/2000/svg"
 width="712.000000pt" height="712.000000pt" viewBox="0 0 712.000000 712.000000"
 preserveAspectRatio="xMidYMid meet">
<metadata>
Created by potrace 1.14, written by Peter Selinger 2001-2017
</metadata>
<g transform="translate(0.000000,712.000000) scale(0.100000,-0.100000)"
fill="#000000" stroke="none">
<path d="M0 3555 l0 -3405 3560 0 3560 0 0 3405 0 3405 -3560 0 -3560 0 0
-3405z m4075 2412 c399 -77 877 -258 1075 -406 79 -60 194 -175 255 -256 90
-120 174 -313 263 -600 69 -226 79 -276 94 -501 l12 -182 106 5 c58 2 182 11
277 19 94 7 274 14 400 14 204 0 232 -2 268 -20 80 -38 115 -88 115 -166 0
-68 -21 -115 -67 -153 -62 -51 -85 -54 -378 -36 -272 15 -646 20 -730 8 -41
-5 -48 -10 -57 -35 -18 -51 -96 -205 -149 -296 -181 -307 -293 -469 -461 -667
-79 -93 -225 -271 -325 -395 -99 -124 -220 -269 -269 -323 -105 -116 -215
-258 -211 -272 2 -5 37 -11 78 -13 41 -1 218 -14 394 -29 415 -35 852 -38
1190 -8 136 12 308 19 450 20 220 0 232 -1 272 -22 108 -58 126 -218 34 -296
-52 -44 -97 -52 -209 -39 -53 7 -178 17 -277 22 -99 6 -229 15 -290 20 -434
36 -656 34 -1165 -12 -291 -26 -781 -32 -844 -9 -46 16 -111 72 -133 115 -28
53 -21 133 16 201 48 90 259 337 434 508 85 84 220 231 299 327 80 96 200 236
269 310 154 167 206 234 301 380 136 209 265 466 245 486 -3 3 -213 6 -468 7
-337 1 -493 -2 -570 -11 -80 -10 -116 -11 -147 -2 -82 21 -126 128 -83 197 40
63 56 68 256 71 444 6 864 22 935 36 41 8 91 17 111 21 l37 5 6 113 c9 138 -7
353 -34 467 -43 182 -146 424 -238 560 -60 88 -206 237 -279 286 -105 70 -230
116 -501 183 -337 85 -347 86 -732 86 -321 -1 -351 -2 -432 -23 -219 -55 -684
-264 -853 -383 -115 -82 -352 -318 -434 -434 -77 -109 -181 -319 -214 -435
-55 -190 -62 -242 -61 -455 2 -294 36 -540 104 -753 114 -351 158 -450 276
-619 169 -239 406 -479 664 -668 270 -199 292 -217 363 -305 60 -73 75 -87
114 -97 62 -17 89 -37 114 -85 51 -100 -16 -202 -148 -225 -36 -7 -407 -11
-993 -12 -514 -1 -998 -4 -1075 -7 -206 -9 -741 13 -777 32 -92 48 -88 200 7
240 24 10 100 16 252 21 250 9 237 9 1361 3 463 -3 841 -2 840 2 -2 4 -57 53
-123 110 -261 224 -404 381 -687 755 -223 294 -292 405 -359 576 -11 28 -32
76 -46 107 -119 260 -138 372 -138 815 0 346 5 387 66 635 43 178 84 294 154
435 87 177 194 309 376 462 243 205 573 378 949 497 223 71 336 91 600 109
122 8 450 -2 525 -16z"/>
</g>
</svg>
